<svg version="1.1" xmlns="http://www.w3.org/2000/svg" xmlns:xlink="http://www.w3.org/1999/xlink" x="0px" y="0px"
	 viewBox="0 0 192 192" enable-background="new 0 0 192 192" xml:space="preserve">
  <g id="Standard_boq_icon">
    <g id="bounding_box_2_">
      <rect x="0" y="0.25" fill="none" width="192" height="192"/>
    </g>
    <g id="Art_layer">
      <path fill="#EA4335" d="M38,44L38,44c-1.24,0-2.46,0.13-3.63,0.37C26.17,46.04,20,53.3,20,62v64c0,9.94,8.06,18,18,18h0
                c9.94,0,18-8.06,18-18V62C56,52.06,47.94,44,38,44z"/>
      <path fill="#34A853" d="M154,44L154,44c-1.24,0-2.46,0.13-3.63,0.37C142.17,46.04,136,53.3,136,62v64c0,9.94,8.06,18,18,18h0
                c9.94,0,18-8.06,18-18V62C172,52.06,163.94,44,154,44z"/>
      <path fill="#FBBC04" d="M96,84L96,84c-1.24,0-2.46,0.13-3.63,0.37C84.17,86.04,78,93.3,78,102v64c0,9.94,8.06,18,18,18h0
                c9.94,0,18-8.06,18-18v-64C114,92.06,105.94,84,96,84z"/>
      <circle fill="#4285F4" cx="96" cy="34" r="26"/>
    </g>
  </g>
</svg>

